<svg width="16" height="11" viewBox="0 0 16 11" fill="none" xmlns="http://www.w3.org/2000/svg">
<path fill-rule="evenodd" clip-rule="evenodd" d="M7.66058 2.28448C9.88343 2.28457 12.0213 3.13868 13.6323 4.67028C13.7536 4.78852 13.9475 4.78703 14.067 4.66693L15.2266 3.4966C15.2871 3.43569 15.3208 3.35318 15.3203 3.26733C15.3198 3.18148 15.2851 3.09937 15.2239 3.03917C10.9956 -1.01306 4.3249 -1.01306 0.0965747 3.03917C0.0353245 3.09933 0.000571789 3.18141 6.99267e-06 3.26726C-0.000557804 3.35311 0.0331118 3.43565 0.0935653 3.4966L1.25353 4.66693C1.37293 4.78721 1.56698 4.7887 1.68822 4.67028C3.29942 3.13858 5.43751 2.28447 7.66058 2.28448ZM7.66058 6.09206C8.88189 6.09198 10.0596 6.54594 10.9649 7.36571C11.0874 7.48206 11.2803 7.47953 11.3996 7.36003L12.5579 6.1897C12.6189 6.12831 12.6527 6.04503 12.6519 5.9585C12.651 5.87196 12.6155 5.78939 12.5532 5.72926C9.7964 3.16485 5.5271 3.16485 2.77028 5.72926C2.708 5.78939 2.67247 5.872 2.67166 5.95857C2.67084 6.04513 2.7048 6.1284 2.76593 6.1897L3.92389 7.36003C4.04325 7.47953 4.23613 7.48206 4.35858 7.36571C5.26328 6.54648 6.44007 6.09256 7.66058 6.09206ZM9.98095 8.65389C9.98272 8.74066 9.94861 8.82433 9.88666 8.88512L7.88306 10.9071C7.82432 10.9665 7.74425 11 7.66069 11C7.57714 11 7.49707 10.9665 7.43833 10.9071L5.43439 8.88512C5.37249 8.82428 5.33843 8.74059 5.34027 8.65381C5.3421 8.56704 5.37967 8.48486 5.44409 8.42669C6.72367 7.34442 8.59772 7.34442 9.8773 8.42669C9.94167 8.48491 9.97918 8.56711 9.98095 8.65389Z" fill="white"/>
</svg>
