<svg width="11" height="12" viewBox="0 0 11 12" fill="none" xmlns="http://www.w3.org/2000/svg">
<path d="M8.76171 8.76171C8.3392 9.18421 7.562 9.96142 6.86608 10.6573C6.08098 11.4424 4.80843 11.4423 4.02333 10.6572C3.34089 9.97478 2.57593 9.20982 2.12781 8.76171C0.295915 6.92981 0.295915 3.95971 2.12781 2.12781C3.95971 0.295915 6.92981 0.295915 8.76171 2.12781C10.5936 3.95971 10.5936 6.92981 8.76171 8.76171Z" stroke="#FE8C00" stroke-width="1.5" stroke-linecap="round" stroke-linejoin="round"/>
<path d="M7.20384 5.44476C7.20384 6.41627 6.41627 7.20384 5.44476 7.20384C4.47325 7.20384 3.68569 6.41627 3.68569 5.44476C3.68569 4.47325 4.47325 3.68568 5.44476 3.68568C6.41627 3.68568 7.20384 4.47325 7.20384 5.44476Z" stroke="#FE8C00" stroke-width="1.5" stroke-linecap="round" stroke-linejoin="round"/>
</svg>
