<svg width="17" height="20" viewBox="0 0 17 20" fill="none" xmlns="http://www.w3.org/2000/svg">
<path fill-rule="evenodd" clip-rule="evenodd" d="M8.49999 0C5.81747 0 3.64285 2.17462 3.64285 4.85714V6.07142H2.42858C1.80984 6.07142 1.29005 6.53666 1.22172 7.15161L0.00743279 18.0802C-0.0307098 18.4235 0.0791417 18.7667 0.309493 19.0241C0.539845 19.2815 0.868896 19.4286 1.21429 19.4286H15.7857C16.1311 19.4286 16.4602 19.2815 16.6905 19.0241C16.9209 18.7667 17.0307 18.4235 16.9926 18.0802L15.7783 7.15161C15.71 6.53666 15.1902 6.07142 14.5714 6.07142H13.3571V4.85714C13.3571 2.17462 11.1825 0 8.49999 0ZM10.9286 6.07142V4.85714C10.9286 3.51588 9.84126 2.42857 8.49999 2.42857C7.15873 2.42857 6.07142 3.51588 6.07142 4.85714V6.07142H10.9286ZM3.64285 9.71428C3.64285 9.04365 4.18651 8.5 4.85714 8.5C5.52777 8.5 6.07142 9.04365 6.07142 9.71428C6.07142 10.3849 5.52777 10.9286 4.85714 10.9286C4.18651 10.9286 3.64285 10.3849 3.64285 9.71428ZM12.1428 8.5C11.4722 8.5 10.9286 9.04365 10.9286 9.71428C10.9286 10.3849 11.4722 10.9286 12.1428 10.9286C12.8135 10.9286 13.3571 10.3849 13.3571 9.71428C13.3571 9.04365 12.8135 8.5 12.1428 8.5Z" fill="#C2C2C2"/>
</svg>
