<svg width="14" height="13" viewBox="0 0 14 13" fill="none" xmlns="http://www.w3.org/2000/svg">
<path d="M6.31492 0.357953C6.47 -0.119321 7.14521 -0.119319 7.30029 0.357954L8.5522 4.21096C8.62156 4.4244 8.82046 4.56891 9.04489 4.56891H13.0962C13.598 4.56891 13.8067 5.21108 13.4007 5.50605L10.1231 7.88734C9.94154 8.01925 9.86557 8.25308 9.93492 8.46652L11.1868 12.3195C11.3419 12.7968 10.7957 13.1937 10.3897 12.8987L7.1121 10.5174C6.93053 10.3855 6.68468 10.3855 6.50311 10.5174L3.22555 12.8987C2.81955 13.1937 2.2733 12.7968 2.42837 12.3195L3.68029 8.46652C3.74964 8.25308 3.67367 8.01925 3.4921 7.88734L0.214537 5.50605C-0.191456 5.21108 0.0171986 4.56891 0.519034 4.56891H4.57032C4.79475 4.56891 4.99365 4.4244 5.063 4.21096L6.31492 0.357953Z" fill="#FE8C00"/>
</svg>
